HIERARCHY
ROOT Hips
{
	OFFSET 0.000000 0.000000 0.000000
	CHANNELS 6 Xposition Yposition Zposition Zrotation Yrotation Xrotation 
	JOINT LHipJoint
	{
		OFFSET 0.000000 0.000000 0.000000
		CHANNELS 3 Zrotation Yrotation Xrotation
		JOINT LeftUpLeg
		{
			OFFSET 1.363060 -1.794630 0.839290
			CHANNELS 3 Zrotation Yrotation Xrotation
			JOINT LeftLeg
			{
				OFFSET 2.448110 -6.726130 0.000000
				CHANNELS 3 Zrotation Yrotation Xrotation
				JOINT LeftFoot
				{
					OFFSET 2.562200 -7.039590 0.000000
					CHANNELS 3 Zrotation Yrotation Xrotation
					JOINT LeftToeBase
					{
						OFFSET 0.157640 -0.433110 2.322550
						CHANNELS 3 Zrotation Yrotation Xrotation
						End Site
						{
							OFFSET 0.000000 0.000000 0.000000
						}
					}
				}
			}
		}
	}
	JOINT RHipJoint
	{
		OFFSET 0.000000 0.000000 0.000000
		CHANNELS 3 Zrotation Yrotation Xrotation
		JOINT RightUpLeg
		{
			OFFSET -1.305520 -1.794630 0.839290
			CHANNELS 3 Zrotation Yrotation Xrotation
			JOINT RightLeg
			{
				OFFSET -2.542530 -6.985550 0.000000
				CHANNELS 3 Zrotation Yrotation Xrotation
				JOINT RightFoot
				{
					OFFSET -2.568260 -7.056230 0.000000
					CHANNELS 3 Zrotation Yrotation Xrotation
					JOINT RightToeBase
					{
						OFFSET -0.164730 -0.452590 2.363150
						CHANNELS 3 Zrotation Yrotation Xrotation
						End Site
						{
							OFFSET 0.000000 0.000000 0.000000
						}
					}
				}
			}
		}
	}
	JOINT LowerBack
	{
		OFFSET 0.000000 0.000000 0.000000
		CHANNELS 3 Zrotation Yrotation Xrotation
		JOINT Spine
		{
			OFFSET 0.028270 2.035590 -0.193380
			CHANNELS 3 Zrotation Yrotation Xrotation
			JOINT Spine1
			{
				OFFSET 0.056720 2.048850 -0.042750
				CHANNELS 3 Zrotation Yrotation Xrotation
				JOINT Neck
				{
					OFFSET 0.000000 0.000000 0.000000
					CHANNELS 3 Zrotation Yrotation Xrotation
					JOINT Neck1
					{
						OFFSET -0.054170 1.746240 0.172020
						CHANNELS 3 Zrotation Yrotation Xrotation
						JOINT Head
						{
							OFFSET 0.104070 1.761360 -0.123970
							CHANNELS 3 Zrotation Yrotation Xrotation
							End Site
							{
								OFFSET 0.000000 0.000000 0.000000
							}
						}
					}
				}
				JOINT LeftShoulder
				{
					OFFSET 0.000000 0.000000 0.000000
					CHANNELS 3 Zrotation Yrotation Xrotation
					JOINT LeftArm
					{
						OFFSET 3.362410 1.200890 -0.311210
						CHANNELS 3 Zrotation Yrotation Xrotation
						JOINT LeftForeArm
						{
							OFFSET 4.983000 -0.000000 -0.000000
							CHANNELS 3 Zrotation Yrotation Xrotation
							JOINT LeftHand
							{
								OFFSET 3.483560 -0.000000 -0.000000
								CHANNELS 3 Zrotation Yrotation Xrotation
								JOINT LeftFingerBase
								{
									OFFSET 0.000000 0.000000 0.000000
									CHANNELS 3 Zrotation Yrotation Xrotation
									JOINT LeftHandIndex1
									{
										OFFSET 0.715260 -0.000000 -0.000000
										CHANNELS 3 Zrotation Yrotation Xrotation
										End Site
										{
											OFFSET 0.000000 0.000000 0.000000
										}
									}
								}
								JOINT LThumb
								{
									OFFSET 0.000000 0.000000 0.000000
									CHANNELS 3 Zrotation Yrotation Xrotation
									End Site
									{
										OFFSET 0.000000 0.000000 0.000000
									}
								}
							}
						}
					}
				}
				JOINT RightShoulder
				{
					OFFSET 0.000000 0.000000 0.000000
					CHANNELS 3 Zrotation Yrotation Xrotation
					JOINT RightArm
					{
						OFFSET -3.136600 1.374050 -0.404650
						CHANNELS 3 Zrotation Yrotation Xrotation
						JOINT RightForeArm
						{
							OFFSET -5.241900 -0.000000 -0.000000
							CHANNELS 3 Zrotation Yrotation Xrotation
							JOINT RightHand
							{
								OFFSET -3.444170 -0.000000 -0.000000
								CHANNELS 3 Zrotation Yrotation Xrotation
								JOINT RightFingerBase
								{
									OFFSET 0.000000 0.000000 0.000000
									CHANNELS 3 Zrotation Yrotation Xrotation
									JOINT RightHandIndex1
									{
										OFFSET -0.622530 -0.000000 -0.000000
										CHANNELS 3 Zrotation Yrotation Xrotation
										End Site
										{
											OFFSET 0.000000 0.000000 0.000000
										}
									}
								}
								JOINT RThumb
								{
									OFFSET 0.000000 0.000000 0.000000
									CHANNELS 3 Zrotation Yrotation Xrotation
									End Site
									{
										OFFSET 0.000000 0.000000 0.000000
									}
								}
							}
						}
					}
				}
			}
		}
	}
}
MOTION
Frames: 12
Frame Time: 0.008333
24.499596 18.196332 -0.673073 34.797137 -85.157217 -22.849467 -4.603252 3.364452 1.209673 -8.125831 -21.096693 -13.861411 -1.014989 6.549883 19.588718 -5.039715 16.748250 0.578400 0.156900 2.552400 7.034900 -0.937931 -3.754741 0.763196 14.284294 21.308728 -11.341496 -0.490796 -6.912865 23.367707 2.124379 -14.779550 -18.855317 -0.350000 -3.801200 10.518000 -1.453954 0.664628 -5.095740 0.349738 0.136141 -7.266107 -0.353914 0.329437 -4.173794 -1.751677 -1.431518 -11.381736 -1.713378 -0.610066 35.390593 -1.005000 -0.496700 9.541600 -7.357615 -12.766979 2.337771 -94.007632 12.625190 2.492643 24.116450 -23.926417 -5.052533 1.347855 0.602635 17.906663 25.971210 -11.176108 -5.681100 -7.125000 0.000000 0.000000 -1.635100 16.377100 1.108200 5.883556 15.100261 3.669289 83.816710 -10.430051 8.514588 -19.858499 22.179971 -5.873554 1.843030 -0.406839 7.062503 -14.008296 -48.518589 11.919700 7.125000 0.000000 0.000000 46.029900 -74.874800 -33.997700 
24.495760 18.196219 -0.671494 35.268001 -85.251277 -23.325984 -4.590667 3.366672 1.210213 -8.149497 -21.069686 -13.853789 -1.004780 6.568414 19.640772 -5.064477 16.819513 0.554832 0.165600 2.621600 7.226900 -0.929855 -3.752343 0.762052 14.274569 21.293276 -11.351139 -0.490553 -6.912422 23.360714 2.108671 -14.692037 -18.792125 -0.341000 -3.752400 10.381100 -1.427475 0.692686 -5.123799 0.351771 0.169995 -7.261527 -0.365035 0.346221 -4.156844 -1.876172 -1.416090 -11.381624 -1.596921 -0.610444 35.396909 -0.951700 -0.493600 9.543900 -7.357637 -12.774493 2.337846 -94.013483 12.608160 2.516551 24.121489 -23.934097 -5.048274 1.336630 0.615456 17.830664 25.945139 -10.842933 -5.529800 -7.125000 0.000000 0.000000 -1.624100 16.738300 1.088000 5.883692 15.092879 3.669995 83.802775 -10.447026 8.580086 -19.859631 22.179622 -5.874017 1.842383 -0.406782 6.979961 -14.149816 -48.507189 12.024000 7.125000 0.000000 0.000000 45.841500 -74.916900 -33.883000 
24.493278 18.193286 -0.669689 35.598636 -85.295416 -23.679279 -4.589145 3.377044 1.216933 -8.162508 -21.085399 -13.798953 -1.010249 6.560926 19.627921 -5.076835 16.844204 0.430902 0.160700 2.582700 7.118900 -0.927156 -3.750564 0.761814 14.268517 21.223242 -11.357996 -0.496324 -6.924737 23.394011 2.079225 -14.576397 -18.787528 -0.333000 -3.708400 10.257700 -1.417073 0.706306 -5.124914 0.355101 0.187957 -7.243635 -0.370066 0.355469 -4.145213 -2.019983 -1.429322 -11.481996 -1.463551 -0.646309 35.488638 -0.894900 -0.507800 9.589300 -7.358259 -12.778571 2.336331 -94.032528 12.551831 2.486145 24.106770 -23.927601 -5.047984 1.339264 0.613191 17.871221 26.027588 -10.915607 -5.583300 -7.125000 0.000000 0.000000 -1.572900 16.648900 1.056700 5.885362 15.083432 3.673675 83.783039 -10.465208 8.672072 -19.892196 22.221557 -5.898688 1.840891 -0.394221 6.819837 -14.125225 -48.743977 12.046700 7.125000 0.000000 0.000000 46.613900 -75.050400 -34.625200 
24.490796 18.192721 -0.668448 35.571550 -85.290563 -23.672923 -4.594952 3.387700 1.219934 -8.156999 -21.155558 -13.743645 -1.011841 6.556578 19.623480 -5.086157 16.863407 0.357102 0.158500 2.565400 7.071100 -0.929727 -3.753872 0.763848 14.278612 21.192101 -11.343261 -0.498840 -6.928572 23.405365 2.084350 -14.580123 -18.748300 -0.344700 -3.772300 10.436900 -1.427450 0.684683 -5.118319 0.374675 0.160822 -7.242608 -0.341564 0.343476 -4.151253 -2.073323 -1.424205 -11.556825 -1.424531 -0.639056 35.572908 -0.873800 -0.505500 9.628100 -7.360237 -12.777665 2.329707 -94.075912 12.498758 2.316688 24.030128 -23.850729 -5.029337 1.357331 0.594271 17.973045 26.099753 -11.460416 -5.840300 -7.125000 0.000000 0.000000 -1.571200 16.052300 1.075900 5.888629 15.080381 3.681179 83.745572 -10.521702 8.774610 -19.921444 22.258633 -5.921605 1.839557 -0.383531 6.706788 -14.078419 -48.965971 12.049800 7.125000 0.000000 0.000000 47.374200 -75.164600 -35.345600 
24.489555 18.195429 -0.667996 35.670701 -85.259441 -23.743328 -4.597428 3.382715 1.216750 -8.173017 -21.151766 -13.770735 -1.015220 6.549633 19.605581 -5.076729 16.838967 0.374864 0.153100 2.521100 6.948100 -0.930934 -3.749377 0.764215 14.245900 21.174650 -11.397432 -0.501762 -6.935012 23.418257 2.095417 -14.599050 -18.693943 -0.353500 -3.819800 10.570400 -1.476757 0.647065 -5.133150 0.390326 0.109162 -7.276291 -0.294410 0.321200 -4.176757 -2.091627 -1.410781 -11.493917 -1.451248 -0.614865 35.562431 -0.874600 -0.500600 9.613000 -7.362728 -12.780295 2.326641 -94.138726 12.542004 2.182891 24.028659 -23.845172 -5.024195 1.361274 0.584905 18.036508 25.929217 -11.612360 -5.858300 -7.125000 0.000000 0.000000 -1.702000 15.914700 1.170600 5.891389 15.082396 3.682678 83.718935 -10.564536 8.804492 -19.883413 22.205001 -5.892406 1.842085 -0.395801 6.806972 -14.152980 -48.690099 12.058900 7.125000 0.000000 0.000000 46.412000 -75.028200 -34.441900 
24.489443 18.197009 -0.668786 35.965183 -85.249589 -23.974969 -4.589142 3.366635 1.211116 -8.194404 -21.072251 -13.858650 -1.020036 6.545320 19.592674 -5.047381 16.758125 0.383563 0.156800 2.551600 7.032600 -0.926811 -3.737270 0.760432 14.191335 21.178123 -11.494259 -0.502091 -6.939363 23.420431 2.109136 -14.640219 -18.669488 -0.339900 -3.746200 10.363700 -1.534757 0.651827 -5.115134 0.379216 0.110615 -7.335383 -0.270656 0.326022 -4.270450 -2.050449 -1.445746 -11.485087 -1.512463 -0.652520 35.641372 -0.903700 -0.524600 9.631900 -7.362400 -12.775636 2.328208 -94.143709 12.626800 2.227502 24.069927 -23.881096 -5.034275 1.358754 0.584153 18.058738 25.801069 -11.547564 -5.794300 -7.125000 0.000000 0.000000 -1.784300 16.003700 1.223800 5.892379 15.090581 3.681026 83.775128 -10.643742 8.767185 -19.857196 22.178739 -5.888923 1.840010 -0.399038 6.748317 -14.453754 -48.727933 12.292900 7.125000 0.000000 0.000000 46.202500 -75.155100 -34.384300 
24.488202 18.197573 -0.669237 36.369574 -85.289812 -24.330298 -4.578909 3.361357 1.207701 -8.197682 -21.048896 -13.896726 -1.023323 6.542528 19.588127 -5.028838 16.702240 0.342721 0.186900 2.784000 7.678000 -0.918437 -3.729520 0.755235 14.158086 21.245352 -11.539997 -0.501702 -6.940913 23.418556 2.133687 -14.730263 -18.658785 -0.335900 -3.724300 10.302400 -1.557235 0.681720 -5.100666 0.363247 0.146281 -7.375207 -0.265341 0.344747 -4.344172 -1.903402 -1.465753 -11.529545 -1.628236 -0.659875 35.754375 -0.962500 -0.530200 9.671100 -7.361743 -12.762675 2.325788 -94.119858 12.642851 2.292026 24.070094 -23.875086 -5.031946 1.357350 0.585876 18.068684 25.782038 -11.492613 -5.765700 -7.125000 0.000000 0.000000 -1.792700 16.064800 1.227200 5.892156 15.102445 3.684947 83.828485 -10.724138 8.743849 -19.894806 22.236389 -5.930511 1.834375 -0.384842 6.558197 -14.639420 -49.162506 12.510500 7.125000 0.000000 0.000000 47.412800 -75.474800 -35.655000 
24.486622 18.197009 -0.668561 36.624001 -85.280953 -24.563157 -4.579744 3.362685 1.203498 -8.213176 -21.076450 -13.895264 -1.023700 6.539108 19.580836 -5.030565 16.709487 0.362148 0.190500 2.810600 7.751800 -0.915425 -3.727685 0.756582 14.121836 21.253519 -11.549568 -0.502623 -6.944187 23.425837 2.123556 -14.698807 -18.682218 -0.343900 -3.768400 10.426100 -1.586226 0.679535 -5.116550 0.361501 0.141882 -7.379199 -0.255432 0.344332 -4.344896 -2.028035 -1.480050 -11.601941 -1.521540 -0.692771 35.788698 -0.915700 -0.544200 9.695000 -7.362359 -12.767581 2.324721 -94.132126 12.591825 2.248183 24.065381 -23.876024 -5.032590 1.362866 0.575816 18.075340 25.728534 -11.721163 -5.847700 -7.125000 0.000000 0.000000 -1.849100 15.829900 1.275200 5.893370 15.094664 3.685101 83.801467 -10.712460 8.743713 -19.902397 22.241363 -5.929575 1.836003 -0.383540 6.623112 -14.429910 -49.142068 12.347700 7.125000 0.000000 0.000000 47.568900 -75.389400 -35.706400 
24.483463 18.195203 -0.667432 36.612298 -85.266444 -24.552044 -4.582891 3.366719 1.204343 -8.225537 -21.074763 -13.884548 -1.022726 6.538346 19.571735 -5.058866 16.794113 0.396856 0.154900 2.536000 6.989500 -0.915109 -3.727290 0.758122 14.106941 21.242297 -11.537447 -0.503089 -6.944834 23.430479 2.088568 -14.582740 -18.731233 -0.350400 -3.803200 10.523500 -1.596853 0.696900 -5.073309 0.336990 0.163247 -7.404792 -0.281989 0.354780 -4.418811 -1.969189 -1.506975 -11.651836 -1.492703 -0.745282 35.893860 -0.925700 -0.559400 9.733000 -7.359299 -12.763380 2.324388 -94.104831 12.580903 2.217897 24.013189 -23.813872 -5.014562 1.371896 0.566511 18.133458 25.720192 -11.981353 -5.956600 -7.125000 0.000000 0.000000 -1.878300 15.551200 1.306700 5.893806 15.104350 3.680336 83.860032 -10.752002 8.656298 -19.875666 22.195286 -5.890592 1.841184 -0.398976 6.728993 -14.325432 -48.668150 12.184800 7.125000 0.000000 0.000000 46.149400 -75.073800 -34.269700 
24.473535 18.193286 -0.663484 37.288308 -85.378496 -25.286125 -4.578162 3.393860 1.219932 -8.270967 -21.090858 -13.759401 -1.020877 6.540147 19.580245 -5.125869 16.978309 0.288355 0.134500 2.363900 6.512600 -0.903166 -3.731396 0.758155 14.112956 21.217801 -11.459314 -0.502355 -6.942720 23.423633 2.057958 -14.453305 -18.707149 -0.338800 -3.740300 10.347300 -1.562504 0.747992 -5.068404 0.328420 0.227932 -7.405025 -0.303115 0.386002 -4.439401 -1.951848 -1.535126 -11.637692 -1.521340 -0.780291 35.918211 -0.941700 -0.579000 9.736500 -7.359864 -12.763680 2.324445 -94.122377 12.631101 2.189270 23.996663 -23.793016 -5.008864 1.370831 0.572039 18.185504 25.800804 -11.872408 -5.934200 -7.125000 0.000000 0.000000 -1.813800 15.653300 1.257800 5.892536 15.106881 3.679873 83.897361 -10.841542 8.628165 -19.870828 22.180158 -5.875462 1.843187 -0.405808 6.716005 -14.344316 -48.445528 12.159200 7.125000 0.000000 0.000000 45.428200 -74.945200 -33.575000 
24.460561 18.190691 -0.659535 38.061405 -85.484788 -26.141892 -4.576147 3.425181 1.234160 -8.329473 -21.141112 -13.609971 -1.015564 6.544658 19.597911 -5.204296 17.197934 0.201422 0.121800 2.250000 6.197000 -0.891293 -3.739735 0.762022 14.130630 21.161272 -11.356479 -0.500383 -6.938024 23.409168 2.051497 -14.400733 -18.643668 -0.308100 -3.568600 9.866000 -1.544933 0.762155 -5.135600 0.357407 0.246519 -7.370409 -0.270296 0.395823 -4.355301 -2.096425 -1.483379 -11.593843 -1.405039 -0.730033 35.939636 -0.877900 -0.554400 9.734900 -7.363414 -12.771279 2.324694 -94.222607 12.692701 2.109718 24.074708 -23.881880 -5.029278 1.358160 0.579855 18.257614 25.654053 -11.496991 -5.732400 -7.125000 0.000000 0.000000 -1.880700 16.078200 1.287000 5.896023 15.095869 3.687867 83.828284 -10.897963 8.724870 -19.880697 22.188156 -5.881789 1.844945 -0.399408 6.696764 -14.160305 -48.524833 12.035500 7.125000 0.000000 0.000000 45.876300 -74.930200 -33.922600 
24.453905 18.188886 -0.657730 38.161647 -85.477102 -26.285612 -4.579335 3.434438 1.240082 -8.365943 -21.159255 -13.562303 -1.011559 6.550503 19.620484 -5.220432 17.244005 0.167863 0.119100 2.225200 6.128500 -0.890516 -3.746901 0.769020 14.135276 21.118930 -11.294655 -0.497300 -6.930924 23.390467 2.056486 -14.408701 -18.620319 -0.300300 -3.523500 9.739700 -1.564538 0.739908 -5.157306 0.385971 0.211371 -7.438785 -0.225382 0.383334 -4.406589 -2.191884 -1.446954 -11.213281 -1.403782 -0.700911 35.802363 -0.857200 -0.552100 9.619700 -7.367279 -12.785644 2.327480 -94.359108 12.898689 2.018872 24.159751 -23.968577 -5.064766 1.358151 0.580391 18.254738 25.645830 -11.472739 -5.719600 -7.125000 0.000000 0.000000 -1.884900 16.105400 1.288800 5.901609 15.094043 3.696535 83.804897 -11.117134 8.825344 -19.889396 22.188407 -5.889270 1.846911 -0.397620 6.702870 -14.074382 -48.594907 11.984600 7.125000 0.000000 0.000000 46.180400 -74.942400 -34.178700 
